PathFileType	4	(X/Y/Z)	C:\Users\Basilio\Documents\Thesis Gigler\squatting_fais\c3dfiles\073\SJ_pre4\markers_experimental.trc
DataRate	CameraRate	NumFrames	NumMarkers	Units	OrigDataRate	OrigDataStartFrame	OrigNumFrames
200.000000	200.000000	4	61	mm	200.000000	487	1299
Frame#	Time	FHD			LBHD			RBHD			C7			T10			CLAV			LSHO			LUUPA			LMUPA			LDUPA			LLEP			LMEP			LRAD			LUL			LRFIN			RSHO			RUPA1			RMUPA			RDUPA			RLEP			RMEP			RRAD			RUL			RUFIN			LASI			RASI			USACR			LSACR			RSACR			LTHI1			LTHI2			LTHI3			LTHI4			LLFC			LMFC			LTIB1			LTIB2			LTIB3			LTIB4			LLMAL			LMMAL			LHEE			LMT1			LMT2			LMT5			RTHI			RTHI2			RTHI3			RTHI4			RLFC			RMFC			RTIB1			RTIB2			RTIB3			RTIB4			RLMAL			RMMAL			RHEE			RMT1			RMT2			RMT5			
		X1	Y1	Z1	X2	Y2	Z2	X3	Y3	Z3	X4	Y4	Z4	X5	Y5	Z5	X6	Y6	Z6	X7	Y7	Z7	X8	Y8	Z8	X9	Y9	Z9	X10	Y10	Z10	X11	Y11	Z11	X12	Y12	Z12	X13	Y13	Z13	X14	Y14	Z14	X15	Y15	Z15	X16	Y16	Z16	X17	Y17	Z17	X18	Y18	Z18	X19	Y19	Z19	X20	Y20	Z20	X21	Y21	Z21	X22	Y22	Z22	X23	Y23	Z23	X24	Y24	Z24	X25	Y25	Z25	X26	Y26	Z26	X27	Y27	Z27	X28	Y28	Z28	X29	Y29	Z29	X30	Y30	Z30	X31	Y31	Z31	X32	Y32	Z32	X33	Y33	Z33	X34	Y34	Z34	X35	Y35	Z35	X36	Y36	Z36	X37	Y37	Z37	X38	Y38	Z38	X39	Y39	Z39	X40	Y40	Z40	X41	Y41	Z41	X42	Y42	Z42	X43	Y43	Z43	X44	Y44	Z44	X45	Y45	Z45	X46	Y46	Z46	X47	Y47	Z47	X48	Y48	Z48	X49	Y49	Z49	X50	Y50	Z50	X51	Y51	Z51	X52	Y52	Z52	X53	Y53	Z53	X54	Y54	Z54	X55	Y55	Z55	X56	Y56	Z56	X57	Y57	Z57	X58	Y58	Z58	X59	Y59	Z59	X60	Y60	Z60	X61	Y61	Z61	

488	2.435	107.0544967651367	958.532409667969	-959.3196411132815	-31.0813159942627	969.9953613281252	-981.6051025390627	-56.49623870849611	962.503845214844	-848.2625122070315	-96.19143676757815	922.2552490234377	-912.6588134765627	-404.7999877929689	800.1146240234377	-912.570495605469	-79.8302688598633	765.4638061523439	-915.8648071289065	-69.95587158203126	799.299255371094	-1079.373413085938	-146.877670288086	802.4616699218752	-1210.69677734375	-175.7973327636719	762.0510253906251	-1218.19287109375	-186.4701080322266	796.857360839844	-1267.708862304688	-272.3489990234376	773.1379394531252	-1334.10595703125	-320.7591857910157	842.9546508789065	-1324.335571289063	-459.0364685058595	679.0229492187501	-1162.388793945313	-432.062713623047	616.7847290039064	-1193.894165039063	-446.0432128906251	668.5810546875001	-1099.5009765625	-69.86698150634767	781.6976318359377	-752.5123901367189	-153.4443359375	800.6726074218752	-604.1295776367189	-183.5540313720703	762.7865600585939	-592.8948364257814	-198.1861877441407	803.186950683594	-550.3656005859376	-274.2725524902344	778.7907714843752	-494.1304321289064	-329.2518310546876	848.3739013671877	-529.4251098632814	-477.1524353027345	682.5595092773439	-649.7269287109376	-445.7884521484376	618.9425659179689	-621.6951293945314	-446.061004638672	666.8900146484376	-714.1004028320314	-429.8703918457032	603.8713378906251	-1047.784423828125	-417.2496337890626	579.0061035156251	-806.873718261719	-525.2235717773439	742.6184692382814	-901.1853027343752	-555.6862792968751	730.8678588867189	-927.9989013671877	-555.1013183593751	727.5062866210939	-872.482849121094	-343.5758666992188	519.4425659179689	-1161.066650390625	-257.5190734863282	522.8408203125001	-1169.349243164063	-237.108627319336	556.1251831054689	-1138.7158203125	-221.9629516601563	472.5760498046876	-1172.4853515625	-184.976806640625	439.7489013671876	-1180.967163085938	-162.1880798339844	418.3813476562501	-1056.240112304688	-203.4793243408204	251.3608398437501	-1149.075317382813	-279.2345581054688	253.7979125976563	-1196.972900390625	-249.3183746337891	226.7671813964844	-1179.01220703125	-288.4296875000001	158.6371459960938	-1147.59765625	-403.9447326660157	88.89491271972658	-1176.1884765625	-380.4914245605469	101.8118515014649	-1089.06787109375	-466.890350341797	54.3393020629883	-1132.320068359375	-237.5944366455079	53.51396942138673	-1128.546264648438	-241.4246520996094	55.44424438476564	-1166.678588867188	-283.3243713378907	37.38273620605469	-1217.923095703125	-413.3411560058595	518.3095092773439	-676.0933837890626	-347.8907165527344	523.5477905273439	-668.3461303710939	-331.7390747070313	551.7402954101564	-677.3750000000001	-291.9354553222657	463.0437622070314	-661.0330200195314	-169.8228149414063	403.149139404297	-655.6962890625001	-148.3295135498047	384.5198669433595	-776.2774047851565	-200.1673736572266	250.3221435546876	-736.3148193359376	-271.8758850097657	204.259750366211	-668.5562133789064	-253.5883483886719	188.1944580078125	-709.6124877929689	-293.6115722656251	161.1346282958985	-741.0577392578126	-410.3675842285157	85.41603851318361	-684.1202392578126	-390.2631835937501	95.80804443359376	-772.905944824219	-484.2922668457032	49.12330245971681	-740.5767822265626	-256.2280578613282	53.65056610107423	-709.6708984375001	-263.2024536132813	55.19117736816408	-669.0889282226564	-311.7130737304688	36.20219421386719	-626.3575439453126	
489	2.44	106.838005065918	958.858093261719	-959.2625732421877	-31.17761802673341	970.2785644531252	-981.608093261719	-56.60676193237306	962.9287109375002	-848.4099121093752	-96.22501373291018	922.5500488281252	-912.6168212890627	-404.8256225585939	800.3784790039065	-912.522155761719	-79.84666442871095	765.7660522460939	-915.9105224609377	-69.95834350585939	799.499450683594	-1079.369140625	-146.8919677734375	802.670593261719	-1210.669921875	-175.941879272461	762.2399291992189	-1218.1669921875	-186.5593414306641	797.022644042969	-1267.736694335938	-272.3767395019532	773.306579589844	-1334.037231445313	-320.7655944824219	843.1169433593752	-1324.316650390625	-459.1782226562501	679.2841186523439	-1162.277709960938	-432.1524353027345	617.0179443359376	-1193.817749023438	-446.0498657226564	668.8255615234376	-1099.449096679688	-69.85555267333986	781.9952392578127	-752.4945068359376	-153.4136047363282	800.9502563476565	-604.0927124023439	-183.5654754638672	763.1359863281251	-592.8831176757814	-198.1639862060547	803.550231933594	-550.3423461914064	-274.2383728027344	779.1466064453127	-494.1030578613282	-329.2453002929688	848.694274902344	-529.3839111328126	-477.1340942382814	682.8598022460939	-649.6849975585939	-445.7636108398439	619.1780395507814	-621.6823730468751	-446.1296997070314	667.1866455078126	-714.0879516601564	-429.9021606445314	604.1635742187501	-1047.657348632813	-417.3986816406251	579.2205810546876	-806.778503417969	-525.2229614257814	742.9407348632814	-901.1052246093752	-555.6810302734376	731.2128295898439	-927.8872680664065	-555.1337280273439	727.8329467773439	-872.4121093750002	-343.7009887695313	519.6564331054689	-1161.000610351563	-257.7086791992188	522.9933471679689	-1169.32421875	-237.2508697509766	556.3442382812501	-1138.699829101563	-222.169906616211	472.8088684082032	-1172.479736328125	-185.1297607421875	439.8866271972657	-1180.93701171875	-162.3394165039063	418.4433593750001	-1056.186157226563	-203.5760345458985	251.4555664062501	-1149.079223632813	-279.4407043457032	253.8452453613282	-1196.923217773438	-249.3272094726563	226.8472290039063	-1179.02001953125	-288.4997253417969	158.7015380859375	-1147.582641601563	-403.9312438964845	88.87915802001955	-1176.209228515625	-380.5018615722657	101.7780456542969	-1089.103759765625	-466.9147949218751	54.34864425659181	-1132.272216796875	-237.5680236816407	53.57893753051759	-1128.572875976563	-241.3699798583985	55.48057937622072	-1166.6953125	-283.4105224609376	37.42430114746094	-1217.890258789063	-413.3680114746095	518.5424194335939	-676.0982055664064	-347.9065551757813	523.7198486328126	-668.3344726562501	-331.7483215332032	551.9417114257814	-677.3875732421876	-292.1386108398438	463.1168823242189	-661.2376098632814	-169.8713989257813	403.252655029297	-655.7650756835939	-148.5718994140625	384.5779724121095	-776.3067626953127	-200.262435913086	250.4175720214844	-736.3734741210939	-271.9096069335938	204.3230895996094	-668.6001586914064	-253.6991882324219	188.2096862792969	-709.7592163085939	-293.6541442871094	161.1149597167969	-741.1367187500001	-410.3780212402345	85.41573333740236	-684.1189575195314	-390.2462768554689	95.80822753906251	-772.8764648437502	-484.3177795410157	49.128719329834	-740.5478515625001	-256.2757873535157	53.63946533203126	-709.6940917968751	-263.1907958984376	55.2093849182129	-669.0944824218751	-311.7094116210938	36.2152328491211	-626.3582763671876	
490	2.445	106.5297241210938	959.238952636719	-959.392761230469	-31.29003524780274	970.5293579101565	-981.5982055664065	-56.636775970459	963.289978027344	-848.4082031250002	-96.27433776855472	922.783386230469	-912.5994873046877	-404.8187866210939	800.6595458984377	-912.4779052734377	-79.91068267822267	766.0560913085939	-915.9853515625002	-69.97341156005861	799.755310058594	-1079.363159179688	-146.8794708251953	802.868103027344	-1210.63232421875	-175.9829406738282	762.4015502929689	-1218.172973632813	-186.5931701660157	797.1097412109377	-1267.734008789063	-272.3862609863282	773.4566650390627	-1334.010375976563	-320.7926025390626	843.2911376953127	-1324.308349609375	-459.2652587890626	679.5205078125001	-1162.237060546875	-432.2594299316407	617.2338867187501	-1193.7490234375	-446.0290527343751	669.0729980468751	-1099.369262695313	-69.88800048828126	782.2827148437502	-752.5046386718751	-153.4114379882813	801.2619628906252	-604.0880126953126	-183.5462646484375	763.4785766601564	-592.8602294921876	-198.1692657470704	803.8970947265627	-550.3150024414064	-274.2520446777344	779.507019042969	-494.142303466797	-329.2431030273438	848.9713134765627	-529.3846435546876	-477.0985107421876	683.1428222656251	-649.6571655273439	-445.7320556640626	619.4890136718751	-621.6705322265626	-446.1160278320314	667.4802856445314	-714.0397338867189	-429.8696594238282	604.4206542968751	-1047.459350585938	-417.3482971191407	579.6464843750001	-806.5938720703127	-525.2222290039064	743.2811889648439	-901.0366821289065	-555.6692504882814	731.5280151367189	-927.787536621094	-555.1217651367189	728.1867675781251	-872.3236083984377	-343.8434753417969	519.8848876953126	-1160.932983398438	-257.7974243164063	523.1654052734376	-1169.283203125	-237.3479766845704	556.5319824218751	-1138.623168945313	-222.3780975341797	473.009246826172	-1172.511962890625	-185.2577362060547	440.0534973144532	-1180.887451171875	-162.5105133056641	418.5630493164064	-1056.188232421875	-203.7156982421876	251.5275878906251	-1149.0888671875	-279.5670166015626	253.9278411865235	-1196.92822265625	-249.4100799560547	226.9243469238282	-1179.017700195313	-288.5160217285157	158.7633514404297	-1147.607421875	-403.969207763672	88.88646697998048	-1176.212524414063	-380.4996643066407	101.7851333618164	-1089.079223632813	-466.9118652343751	54.33007431030275	-1132.266235351563	-237.6250915527344	53.50704956054689	-1128.5234375	-241.4424896240235	55.4498977661133	-1166.641235351563	-283.3646545410157	37.42654418945313	-1217.899047851563	-413.429901123047	518.7523803710939	-676.0164184570314	-347.9513549804688	523.8713989257814	-668.3386230468751	-331.7624206542969	552.1261596679689	-677.3999023437501	-292.2209777832032	463.2646789550782	-661.2611083984376	-169.9966888427735	403.3483886718751	-655.8748168945314	-148.9278564453125	384.5576782226564	-776.398376464844	-200.2643737792969	250.4593811035157	-736.4953613281251	-271.9489746093751	204.3708953857422	-668.6007690429689	-253.6801910400391	188.2729949951172	-709.7551269531251	-293.6893920898438	161.2608184814453	-741.1766357421876	-410.377899169922	85.41378021240236	-684.1262207031251	-390.2451171875001	95.80655670166017	-772.8763427734377	-484.3059692382814	49.12646102905275	-740.5691528320314	-256.2455749511719	53.64489746093751	-709.7057495117189	-263.2185974121094	55.21869277954103	-669.1347045898439	-311.7063903808594	36.21523666381837	-626.3580932617189	
491	2.45	106.4513244628907	959.741638183594	-959.3905029296877	-31.33515548706055	970.8516845703127	-981.5872192382815	-56.74199295043947	963.6164550781252	-848.435974121094	-96.27532196044925	923.038757324219	-912.5737304687502	-404.8579101562501	800.9526367187502	-912.3549804687502	-79.89828491210939	766.3901977539064	-915.938659667969	-69.90499877929689	800.0262451171877	-1079.307983398438	-146.9735717773438	803.0601196289065	-1210.634155273438	-175.9812927246094	762.6054687500001	-1218.116821289063	-186.6192626953125	797.2957763671877	-1267.675415039063	-272.4384765625001	773.546813964844	-1334.013305664063	-320.7632141113282	843.419860839844	-1324.30615234375	-459.3206787109376	679.8237915039064	-1162.184692382813	-432.378631591797	617.4380493164064	-1193.571166992188	-446.1694641113282	669.3666992187501	-1099.310668945313	-69.85423278808595	782.6111450195315	-752.4635009765626	-153.3488311767578	801.568054199219	-604.0877075195314	-183.5620574951172	763.8339843750001	-592.8181762695314	-198.1488952636719	804.227233886719	-550.2906494140626	-274.2184753417969	779.8547363281252	-494.1766967773439	-329.2065429687501	849.2322998046877	-529.3369750976564	-477.0784301757814	683.4538574218751	-649.6170043945314	-445.7364196777345	619.8078002929689	-621.5548706054689	-446.1536254882814	667.7501831054689	-714.0300292968751	-429.8748168945314	604.6431274414064	-1047.252563476563	-417.4431762695314	579.9490966796876	-806.4041137695315	-525.2223510742189	743.5993652343751	-900.9461059570315	-555.6697387695314	731.8432006835939	-927.6985473632815	-555.1415405273439	728.5216674804689	-872.221862792969	-343.9791564941407	520.1331176757814	-1160.906127929688	-258.0331115722657	523.3522338867189	-1169.267822265625	-237.4549102783204	556.7186279296876	-1138.59130859375	-222.5833282470704	473.1944885253907	-1172.466186523438	-185.3878631591797	440.193328857422	-1180.82568359375	-162.6640319824219	418.7264404296876	-1056.13525390625	-203.8154907226563	251.6252136230469	-1149.047607421875	-279.6159973144532	253.9436950683594	-1196.972290039063	-249.573226928711	226.9754028320313	-1179.004028320313	-288.5727539062501	158.8162841796875	-1147.541015625	-403.9862060546876	88.85632324218751	-1176.185180664063	-380.4833984375001	101.7599029541016	-1089.096435546875	-466.937225341797	54.33962249755861	-1132.247680664063	-237.5825958251954	53.59244918823244	-1128.5673828125	-241.3936767578126	55.54316329956056	-1166.674682617188	-283.4281616210938	37.44503402709962	-1217.872192382813	-413.4475097656251	519.0176391601564	-676.0299682617189	-347.9682312011719	524.0271606445314	-668.3990478515626	-331.7994079589844	552.2886352539064	-677.4204101562501	-292.2933349609376	463.4324645996095	-661.2728271484376	-170.0662536621094	403.4533081054689	-655.9326171875001	-149.1832275390625	384.6014404296876	-776.4910888671877	-200.2785339355469	250.5376892089844	-736.5404663085939	-272.0285949707032	204.4084625244141	-668.6564331054689	-253.7580718994141	188.3449096679688	-709.8366699218751	-293.7355957031251	161.3431549072266	-741.1447753906251	-410.3784790039064	85.41553497314455	-684.1171264648439	-390.2819213867189	95.79094696044923	-772.9138793945315	-484.3130798339845	49.15547180175783	-740.5349731445314	-256.2536010742188	53.66716384887697	-709.7090454101564	-263.1973876953126	55.21927642822267	-669.1262207031251	-311.7080688476563	36.21586608886719	-626.3606567382814	
